<svg width="32" height="32" viewBox="0 0 32 32" fill="none" xmlns="http://www.w3.org/2000/svg">
<path d="M21.2093 21.1487L21.864 20.4983L20.3436 18.9707L19.6917 19.6211L21.2093 21.1487ZM24.0593 20.2255L26.803 21.7173L27.8296 19.8249L25.0873 18.3346L24.0593 20.2255ZM27.33 24.6807L25.2912 26.7094L26.8088 28.2356L28.8476 26.2083L27.33 24.6807ZM24.0478 27.3613C21.966 27.5565 16.5819 27.3828 10.7498 21.5852L9.23075 23.1114C15.5941 29.4388 21.6515 29.7489 24.2488 29.5063L24.0478 27.3613ZM10.7498 21.5852C5.19195 16.0575 4.27019 11.4099 4.15533 9.39269L2.00456 9.51473C2.14813 12.0532 3.28956 17.2047 9.23075 23.1114L10.7498 21.5852ZM12.724 12.7122L13.136 12.3015L11.6199 10.7753L11.2078 11.1845L12.724 12.7122ZM13.4634 7.08255L11.6543 4.66473L9.92997 5.95691L11.739 8.3733L13.4634 7.08255ZM5.56525 4.1378L3.3111 6.37759L4.83014 7.90524L7.08285 5.66545L5.56525 4.1378ZM11.9659 11.9483C11.2049 11.1845 11.2049 11.1845 11.2049 11.1874H11.2021L11.1977 11.1931C11.13 11.2623 11.0689 11.3378 11.0154 11.4186C10.9379 11.5334 10.8532 11.6842 10.7814 11.8751C10.6065 12.368 10.563 12.898 10.655 13.4128C10.8474 14.6548 11.7031 16.2958 13.8941 18.4753L15.4131 16.9477C13.3614 14.9089 12.8733 13.6684 12.7828 13.0826C12.7398 12.8041 12.7843 12.6662 12.7972 12.6346C12.8044 12.6145 12.8072 12.6131 12.7972 12.626C12.7845 12.6459 12.7701 12.6647 12.7541 12.682L12.7398 12.6964C12.7351 12.7008 12.7303 12.7052 12.7254 12.7093L11.9659 11.9483ZM13.8941 18.4753C16.0865 20.6548 17.7362 21.5048 18.9796 21.6943C19.6156 21.7919 20.1282 21.7144 20.5173 21.5694C20.7349 21.4889 20.9384 21.3745 21.1203 21.2306C21.145 21.2099 21.169 21.1883 21.1921 21.1659L21.2021 21.1573L21.2064 21.153L21.2079 21.1502C21.2079 21.1502 21.2093 21.1487 20.4498 20.3849C19.6888 19.6211 19.6932 19.6196 19.6932 19.6196L19.696 19.6168L19.6989 19.6139L19.7075 19.6067L19.7219 19.5924C19.7391 19.5769 19.7573 19.5625 19.7764 19.5493C19.7908 19.5392 19.7865 19.5435 19.7664 19.5521C19.7305 19.5651 19.5898 19.6096 19.3069 19.5665C18.7125 19.4746 17.4634 18.9865 15.4131 16.9477L13.8941 18.4753ZM11.6543 4.66329C10.1898 2.71065 7.31257 2.40053 5.56525 4.1378L7.08285 5.66545C7.84667 4.90593 9.20203 4.9849 9.92997 5.95691L11.6543 4.66329ZM4.15676 9.39413C4.12805 8.89735 4.35634 8.37761 4.83014 7.90668L3.30966 6.37903C2.53866 7.14572 1.93133 8.23116 2.00456 9.51473L4.15676 9.39413ZM25.2912 26.7094C24.8978 27.1028 24.4728 27.3239 24.0493 27.3627L24.2488 29.5063C25.3041 29.4072 26.167 28.876 26.8102 28.2371L25.2912 26.7094ZM13.136 12.3015C14.5503 10.8959 14.6551 8.67481 13.4648 7.08399L11.7405 8.37474C12.3191 9.14861 12.2329 10.1637 11.6184 10.7768L13.136 12.3015ZM26.8045 21.7187C27.9775 22.3562 28.1598 23.858 27.3314 24.6821L28.8504 26.2083C30.7744 24.2945 30.1814 21.1028 27.8311 19.8264L26.8045 21.7187ZM21.864 20.4998C22.4154 19.9513 23.3027 19.8163 24.0607 20.227L25.0887 18.3361C23.5324 17.489 21.6027 17.723 20.345 18.9721L21.864 20.4998Z" fill="#212121"/>
</svg>
