<svg width="20" height="20" viewBox="0 0 20 20" fill="none" xmlns="http://www.w3.org/2000/svg">
<path fill-rule="evenodd" clip-rule="evenodd" d="M9.24974 19.2505C9.24974 19.6647 9.58553 20.0005 9.99974 20.0005C10.414 20.0005 10.7497 19.6647 10.7497 19.2505V10.7505H19.2495C19.6637 10.7505 19.9995 10.4148 19.9995 10.0005C19.9995 9.58633 19.6637 9.25055 19.2495 9.25055H10.7497V0.75C10.7497 0.335787 10.414 -1.81026e-08 9.99974 0C9.58553 1.81026e-08 9.24974 0.335787 9.24974 0.75V9.25055H0.75C0.335787 9.25055 0 9.58633 0 10.0005C0 10.4148 0.335787 10.7505 0.75 10.7505H9.24974V19.2505Z" fill="#212121"/>
</svg>
